<?xml version="1.0" encoding="iso-8859-1"?>
<!-- Generator: Adobe Illustrator 24.1.2, SVG Export Plug-In . SVG Version: 6.00 Build 0)  -->
<svg version="1.1" id="Layer_2" xmlns="http://www.w3.org/2000/svg" xmlns:xlink="http://www.w3.org/1999/xlink" x="0px" y="0px"
	 viewBox="0 0 48 48" style="enable-background:new 0 0 48 48;" xml:space="preserve">
<path style="fill:#50E6FF;" d="M5,12h6c0.552,0,1,0.448,1,1v29H4V13C4,12.448,4.448,12,5,12z"/>
<path style="fill:#50E6FF;" d="M28.95,5.293l10.506,10.506l-2.657,2.657L26.293,7.95c-0.391-0.391-0.391-1.024,0-1.414l1.243-1.243
	C27.926,4.902,28.559,4.902,28.95,5.293z"/>
<path style="fill:#35C1F1;" d="M19,18c0.552,0,1,0.448,1,1v23h-8V18H19z"/>
<path style="fill:#199BE2;" d="M27,24c0.552,0,1,0.448,1,1v17h-8V24H27z"/>
<path style="fill:#0078D4;" d="M35,30c0.552,0,1,0.448,1,1v11h-8V30H35z"/>
<path style="fill:#0D62AB;" d="M43,36c0.552,0,1,0.448,1,1v5h-8v-6H43z"/>
<path style="fill:#50E6FF;" d="M33.207,20H40c0.552,0,1-0.448,1-1v-6.793c0-0.445-0.539-0.669-0.854-0.354l-7.293,7.293
	C32.539,19.461,32.762,20,33.207,20z"/>
</svg>