<svg xmlns="http://www.w3.org/2000/svg" xmlns:xlink="http://www.w3.org/1999/xlink" width="48" height="48" viewBox="0 0 48 48"><defs><style>.cls-1{fill:url(#Безымянный_градиент_18)}.cls-2{fill:url(#Безымянный_градиент_18-2)}.cls-3{fill:#64717c}.cls-4{fill:url(#Безымянный_градиент_17)}.cls-5{fill:url(#Безымянный_градиент_54)}</style><linearGradient id="Безымянный_градиент_18" x1="4.967" x2="11.572" y1="28" y2="28" data-name="Безымянный градиент 18" gradientTransform="translate(17 56) rotate(-180)" gradientUnits="userSpaceOnUse"><stop offset=".503" stop-color="#a1aab3"/><stop offset=".658" stop-color="#9ea7af"/><stop offset=".796" stop-color="#949da5"/><stop offset=".928" stop-color="#848c92"/><stop offset="1" stop-color="#787f85"/></linearGradient><linearGradient id="Безымянный_градиент_18-2" x1="16" x2="16" y1="10.609" y2="21.039" gradientTransform="translate(31.5 -0.5) rotate(90)" xlink:href="#Безымянный_градиент_18"/><linearGradient id="Безымянный_градиент_17" x1="9.516" x2="25.851" y1="28" y2="28" data-name="Безымянный градиент 17" gradientUnits="userSpaceOnUse"><stop offset="0" stop-color="#a1aab3"/><stop offset="1" stop-color="#8f979e"/></linearGradient><linearGradient id="Безымянный_градиент_54" x1="44.636" x2="24.715" y1="28" y2="28" data-name="Безымянный градиент 54" gradientUnits="userSpaceOnUse"><stop offset="0" stop-color="#a1aab3"/><stop offset=".177" stop-color="#9ea7af"/><stop offset=".653" stop-color="#949da5"/><stop offset=".707" stop-color="#929ba3"/><stop offset=".735" stop-color="#8b949b"/><stop offset=".751" stop-color="#848c92"/><stop offset="1" stop-color="#787f85"/></linearGradient></defs><rect width="7" height="6" x="5" y="25" class="cls-1" transform="translate(17 56) rotate(180)"/><rect width="11" height="6" x="10.5" y="12.5" class="cls-2" transform="translate(0.5 31.5) rotate(-90)"/><rect width="4" height="10" x="3" y="23" class="cls-3" rx="2" transform="translate(10 56) rotate(180)"/><rect width="4" height="10" x="14" y="5" class="cls-3" rx="2" transform="translate(6 26) rotate(-90)"/><path d="M13,20H26a0,0,0,0,1,0,0V36a0,0,0,0,1,0,0H13a2,2,0,0,1-2-2V22A2,2,0,0,1,13,20Z" class="cls-4"/><path d="M43,16H30.70156a2,2,0,0,0-1.24939.43826L25,20V36l4.45217,3.56174A2,2,0,0,0,30.70156,40H43a2,2,0,0,0,2-2V18A2,2,0,0,0,43,16Z" class="cls-5"/><g><rect width="11" height="2" x="32" y="19" class="cls-3" rx="1"/><rect width="11" height="2" x="32" y="23" class="cls-3" rx="1"/><rect width="11" height="2" x="32" y="27" class="cls-3" rx="1"/><rect width="11" height="2" x="32" y="31" class="cls-3" rx="1"/><rect width="11" height="2" x="32" y="35" class="cls-3" rx="1"/></g></svg>