<?xml version="1.0" encoding="iso-8859-1"?>
<!-- Generator: Adobe Illustrator 25.2.3, SVG Export Plug-In . SVG Version: 6.00 Build 0)  -->
<svg version="1.1" id="&#x421;&#x43B;&#x43E;&#x439;_1"
	 xmlns="http://www.w3.org/2000/svg" xmlns:xlink="http://www.w3.org/1999/xlink" x="0px" y="0px" viewBox="0 0 48 48"
	 style="enable-background:new 0 0 48 48;" xml:space="preserve">
<linearGradient id="SVGID_1_" gradientUnits="userSpaceOnUse" x1="9.913" y1="10.413" x2="41.5588" y2="42.0588">
	<stop  offset="0" style="stop-color:#9332BF"/>
	<stop  offset="1" style="stop-color:#912FBD"/>
</linearGradient>
<path style="fill:url(#SVGID_1_);" d="M34.5,39H24c-0.828,0-1.5-0.672-1.5-1.5V13H15v11.5c0,0.828-0.672,1.5-1.5,1.5h-10
	C2.672,26,2,25.328,2,24.5S2.672,23,3.5,23H12V11.5c0-0.828,0.672-1.5,1.5-1.5H24c0.828,0,1.5,0.672,1.5,1.5V36H33V24.5
	c0-0.828,0.672-1.5,1.5-1.5h10c0.828,0,1.5,0.672,1.5,1.5S45.328,26,44.5,26H36v11.5C36,38.328,35.328,39,34.5,39z"/>
</svg>