<?xml version="1.0" encoding="utf-8"?>
<!-- Generator: Adobe Illustrator 23.0.3, SVG Export Plug-In . SVG Version: 6.00 Build 0)  -->
<svg version="1.1" id="Layer_1" xmlns="http://www.w3.org/2000/svg" xmlns:xlink="http://www.w3.org/1999/xlink" x="0px" y="0px"
	 viewBox="0 0 48 48" style="enable-background:new 0 0 48 48;" xml:space="preserve">
<style type="text/css">
	.st0{fill:url(#SVGID_1_);}
	.st1{fill:url(#SVGID_2_);}
	.st2{fill:#50E6FF;}
	.st3{fill:url(#SVGID_3_);}
	.st4{fill:url(#SVGID_4_);}
	.st5{fill:url(#SVGID_5_);}
	.st6{fill:url(#SVGID_6_);}
	.st7{fill:url(#SVGID_7_);}
	.st8{fill:url(#SVGID_8_);}
	.st9{fill:#64717C;}
	.st10{fill:url(#SVGID_9_);}
	.st11{fill:url(#SVGID_10_);}
	.st12{fill:url(#SVGID_11_);}
	.st13{fill:url(#SVGID_12_);}
	.st14{fill:url(#SVGID_13_);}
	.st15{fill:url(#SVGID_14_);}
	.st16{fill:url(#SVGID_15_);}
	.st17{fill:#5D6267;}
	.st18{fill:#7B83EB;}
	.st19{fill:url(#SVGID_16_);}
	.st20{fill:url(#SVGID_17_);}
	.st21{fill:url(#SVGID_18_);}
	.st22{fill:url(#SVGID_19_);}
	.st23{opacity:5.000000e-02;}
	.st24{opacity:7.000000e-02;}
	.st25{fill:#0F94BF;}
	.st26{fill:url(#SVGID_20_);}
	.st27{fill:url(#SVGID_21_);}
	.st28{fill:url(#SVGID_22_);}
	.st29{fill:#FFFFFF;}
	.st30{fill:#C94F60;}
	.st31{fill:#35C1F1;}
	.st32{fill:#BF2336;}
	.st33{fill:url(#SVGID_23_);}
	.st34{fill:url(#SVGID_24_);}
	.st35{fill:#F3F3F3;}
	.st36{fill:url(#SVGID_25_);}
	.st37{fill:#195BBC;}
	.st38{fill:#42A4EB;}
	.st39{fill:#E52030;}
	.st40{fill:url(#SVGID_26_);}
	.st41{fill:url(#SVGID_27_);}
	.st42{fill:url(#SVGID_28_);}
	.st43{fill:url(#SVGID_29_);}
	.st44{fill:#F5F6F7;}
	.st45{fill:url(#SVGID_30_);}
	.st46{fill:url(#SVGID_31_);}
	.st47{fill:url(#SVGID_32_);}
	.st48{fill:url(#SVGID_33_);}
	.st49{fill:#145693;}
	.st50{fill:#12599A;}
	.st51{fill:url(#SVGID_34_);}
	.st52{fill:url(#SVGID_35_);}
	.st53{fill:url(#SVGID_36_);}
	.st54{fill:url(#SVGID_37_);}
	.st55{fill:url(#SVGID_38_);}
	.st56{fill:url(#SVGID_39_);}
	.st57{fill:url(#SVGID_40_);}
	.st58{fill:url(#SVGID_41_);}
	.st59{opacity:5.000000e-02;enable-background:new    ;}
	.st60{opacity:7.000000e-02;enable-background:new    ;}
	.st61{fill:url(#SVGID_42_);}
	.st62{fill:url(#SVGID_43_);}
	.st63{fill:url(#SVGID_44_);}
	.st64{fill:url(#SVGID_45_);}
	.st65{fill:url(#SVGID_46_);}
	.st66{fill:url(#SVGID_47_);}
	.st67{fill:url(#SVGID_48_);}
	.st68{fill:#D83B01;}
	.st69{fill:#45494D;}
	.st70{fill:#1E2021;}
	.st71{fill:url(#SVGID_49_);}
	.st72{fill:url(#SVGID_50_);}
	.st73{fill:url(#SVGID_51_);}
	.st74{fill:url(#SVGID_52_);}
	.st75{fill:url(#SVGID_53_);}
	.st76{fill:#61E3A7;}
	.st77{fill:#33C481;}
	.st78{fill:#21A366;}
	.st79{fill:url(#SVGID_54_);}
	.st80{fill:url(#SVGID_55_);}
	.st81{fill:url(#SVGID_56_);}
	.st82{fill:#37C6D0;}
	.st83{fill:#1A9BA1;}
	.st84{fill:url(#SVGID_57_);}
	.st85{fill:url(#SVGID_58_);}
	.st86{fill:url(#SVGID_59_);}
	.st87{fill:url(#SVGID_60_);}
	.st88{fill:url(#SVGID_61_);}
	.st89{fill:url(#SVGID_62_);}
	.st90{fill:url(#SVGID_63_);}
	.st91{fill:url(#SVGID_64_);}
	.st92{fill:url(#SVGID_65_);}
	.st93{fill:url(#SVGID_66_);}
	.st94{fill:url(#SVGID_67_);}
	.st95{fill:url(#SVGID_68_);}
	.st96{fill:url(#SVGID_69_);}
	.st97{fill:#B31523;}
	.st98{fill:#CF1928;}
	.st99{fill:#D9414F;}
	.st100{fill:#EB6773;}
	.st101{fill:#CCCCCC;}
	.st102{fill:url(#SVGID_70_);}
	.st103{fill:#999999;}
	.st104{fill:url(#SVGID_71_);}
	.st105{fill:url(#SVGID_72_);}
	.st106{fill:url(#SVGID_73_);}
	.st107{fill:url(#SVGID_74_);}
	.st108{fill:url(#SVGID_75_);}
	.st109{fill:url(#SVGID_76_);}
	.st110{fill:url(#SVGID_77_);}
	.st111{fill:url(#SVGID_78_);}
	.st112{fill:url(#SVGID_79_);}
	.st113{fill:url(#SVGID_80_);}
	.st114{fill:url(#SVGID_81_);}
	.st115{fill:url(#SVGID_82_);}
	.st116{fill:url(#SVGID_83_);}
	.st117{fill:url(#SVGID_84_);}
	.st118{fill:url(#SVGID_85_);}
	.st119{fill:url(#SVGID_86_);}
	.st120{fill:url(#SVGID_87_);}
	.st121{fill:url(#SVGID_88_);}
	.st122{fill:url(#SVGID_89_);}
	.st123{fill:#727D86;}
	.st124{fill:url(#SVGID_90_);}
	.st125{fill:url(#SVGID_91_);}
	.st126{fill:url(#SVGID_92_);}
	.st127{fill:url(#SVGID_93_);}
	.st128{opacity:0.15;fill:url(#SVGID_94_);enable-background:new    ;}
	.st129{fill:url(#SVGID_95_);}
	.st130{fill:#6EEBFF;}
	.st131{fill:url(#SVGID_96_);}
	.st132{fill:url(#SVGID_97_);}
	.st133{fill:url(#SVGID_98_);}
	.st134{fill:url(#SVGID_99_);}
	.st135{fill:url(#SVGID_100_);}
	.st136{fill:url(#SVGID_101_);}
	.st137{fill:url(#SVGID_102_);}
	.st138{fill:url(#SVGID_103_);}
	.st139{fill:#0078D4;}
	.st140{fill:#184F85;}
	.st141{fill:url(#SVGID_104_);}
	.st142{fill:url(#SVGID_105_);}
	.st143{fill:url(#SVGID_106_);}
	.st144{fill:#FF1D25;}
	.st145{fill:url(#SVGID_107_);}
	.st146{fill:url(#SVGID_108_);}
	.st147{fill:url(#SVGID_109_);}
	.st148{fill:url(#SVGID_110_);}
	.st149{fill:url(#SVGID_111_);}
	.st150{fill:url(#SVGID_112_);}
	.st151{fill:url(#SVGID_113_);}
	.st152{fill:url(#SVGID_114_);}
	.st153{fill:none;stroke:#64717C;stroke-width:4;stroke-miterlimit:10;}
	.st154{fill:url(#SVGID_115_);}
	.st155{fill:url(#SVGID_116_);}
	.st156{fill:url(#SVGID_117_);}
	.st157{fill:#6D75CF;}
	.st158{fill:#353C9F;}
	.st159{fill:url(#SVGID_118_);}
	.st160{fill:url(#SVGID_119_);}
	.st161{fill:url(#SVGID_120_);}
	.st162{fill:#E7A200;}
	.st163{fill:#0C63AD;}
	.st164{fill:url(#SVGID_121_);}
	.st165{fill:url(#SVGID_122_);}
	.st166{fill:url(#SVGID_123_);}
	.st167{fill:url(#SVGID_124_);}
	.st168{fill:url(#SVGID_125_);}
	.st169{fill:url(#SVGID_126_);}
	.st170{fill:url(#SVGID_127_);}
	.st171{fill:url(#SVGID_128_);}
	.st172{fill:url(#SVGID_129_);}
	.st173{fill:url(#SVGID_130_);}
	.st174{fill:url(#SVGID_131_);}
	.st175{fill:url(#SVGID_132_);}
	.st176{fill:url(#SVGID_133_);}
	.st177{fill:url(#SVGID_134_);}
	.st178{fill:url(#SVGID_135_);}
	.st179{fill:url(#SVGID_136_);}
	.st180{fill:url(#SVGID_137_);}
	.st181{fill:url(#SVGID_138_);}
	.st182{fill:url(#SVGID_139_);}
	.st183{fill:url(#SVGID_140_);}
	.st184{fill:#057093;}
	.st185{fill:url(#SVGID_141_);}
	.st186{fill:url(#SVGID_142_);}
	.st187{fill:url(#SVGID_143_);}
	.st188{fill:url(#SVGID_144_);}
	.st189{fill:url(#SVGID_145_);}
	.st190{fill:url(#SVGID_146_);}
	.st191{fill:url(#SVGID_147_);}
	.st192{fill:url(#SVGID_148_);}
	.st193{fill:url(#SVGID_149_);}
	.st194{fill:url(#SVGID_150_);}
	.st195{fill:url(#SVGID_151_);}
	.st196{fill:url(#SVGID_152_);}
	.st197{fill:url(#SVGID_153_);}
	.st198{fill:url(#SVGID_154_);}
	.st199{fill:url(#SVGID_155_);}
	.st200{fill:url(#SVGID_156_);}
	.st201{fill:url(#SVGID_157_);}
	.st202{fill:url(#SVGID_158_);}
	.st203{fill:url(#SVGID_159_);}
	.st204{fill:url(#SVGID_160_);}
	.st205{fill:url(#SVGID_161_);}
	.st206{fill:url(#SVGID_162_);}
	.st207{fill:url(#SVGID_163_);}
	.st208{fill:url(#SVGID_164_);}
	.st209{fill:url(#SVGID_165_);}
	.st210{fill:url(#SVGID_166_);}
	.st211{fill:url(#SVGID_167_);}
	.st212{fill:url(#SVGID_168_);}
	.st213{fill:url(#SVGID_169_);}
	.st214{fill:url(#SVGID_170_);}
	.st215{fill:url(#SVGID_171_);}
	.st216{fill:url(#SVGID_172_);}
	.st217{fill:url(#SVGID_173_);}
	.st218{fill:url(#SVGID_174_);}
	.st219{fill:url(#SVGID_175_);}
	.st220{fill:url(#SVGID_176_);}
	.st221{fill:url(#SVGID_177_);}
	.st222{fill:url(#SVGID_178_);}
	.st223{fill:url(#SVGID_179_);}
	.st224{fill:#2D7AD4;}
	.st225{fill:none;stroke:#2D7AD4;stroke-width:2;stroke-miterlimit:10;}
	.st226{fill:#2C7BD4;}
	.st227{fill:#0D61A9;}
	.st228{fill:url(#SVGID_180_);}
	.st229{fill:url(#SVGID_181_);}
	.st230{fill:url(#SVGID_182_);}
	.st231{fill:url(#SVGID_183_);}
	.st232{fill:url(#SVGID_184_);}
	.st233{fill:url(#SVGID_185_);}
	.st234{fill:#199BE2;}
	.st235{fill:url(#SVGID_186_);}
	.st236{fill:url(#SVGID_187_);}
	.st237{fill:url(#SVGID_188_);}
	.st238{fill:url(#SVGID_189_);}
	.st239{fill:url(#SVGID_190_);}
	.st240{fill:url(#SVGID_191_);}
	.st241{fill:url(#SVGID_192_);}
	.st242{fill:url(#SVGID_193_);}
	.st243{fill:url(#SVGID_194_);}
	.st244{fill:url(#SVGID_195_);}
	.st245{fill:url(#SVGID_196_);}
	.st246{fill:url(#SVGID_197_);}
	.st247{fill:url(#SVGID_198_);}
	.st248{fill:url(#SVGID_199_);}
	.st249{fill:url(#SVGID_200_);}
	.st250{fill:url(#SVGID_201_);}
	.st251{fill:url(#SVGID_202_);}
	.st252{fill:url(#SVGID_203_);}
	.st253{fill:url(#SVGID_204_);}
	.st254{fill:url(#SVGID_205_);}
	.st255{fill:url(#SVGID_206_);}
	.st256{fill:url(#SVGID_207_);}
	.st257{fill:url(#SVGID_208_);}
	.st258{fill:url(#SVGID_209_);}
	.st259{fill:url(#SVGID_210_);}
	.st260{fill:url(#SVGID_211_);}
	.st261{fill:url(#SVGID_212_);}
	.st262{fill:url(#SVGID_213_);}
	.st263{fill:url(#SVGID_214_);}
	.st264{fill:url(#SVGID_215_);}
	.st265{fill:url(#SVGID_216_);}
	.st266{fill:url(#SVGID_217_);}
	.st267{fill:url(#SVGID_218_);}
	.st268{fill:url(#SVGID_219_);}
	.st269{fill:url(#SVGID_220_);}
	.st270{fill:url(#SVGID_221_);}
	.st271{fill:url(#SVGID_222_);}
	.st272{fill:url(#SVGID_223_);}
	.st273{fill:url(#SVGID_224_);}
	.st274{fill:url(#SVGID_225_);}
	.st275{fill:url(#SVGID_226_);}
	.st276{fill:url(#SVGID_227_);}
	.st277{fill:url(#SVGID_228_);}
	.st278{fill:url(#SVGID_229_);}
	.st279{fill:url(#SVGID_230_);}
	.st280{fill:url(#SVGID_231_);}
	.st281{fill:url(#SVGID_232_);}
	.st282{fill:url(#SVGID_233_);}
	.st283{fill:url(#SVGID_234_);}
	.st284{fill:url(#SVGID_235_);}
	.st285{fill:#FFF8DE;}
	.st286{fill:url(#SVGID_236_);}
	.st287{fill:url(#SVGID_237_);}
	.st288{fill:url(#SVGID_238_);}
	.st289{fill:url(#SVGID_239_);}
	.st290{fill:url(#SVGID_240_);}
</style>
<linearGradient id="SVGID_1_" gradientUnits="userSpaceOnUse" x1="13.3409" y1="-40.9711" x2="33.7199" y2="-58.1661" gradientTransform="matrix(1 0 0 -1 0 -18)">
	<stop  offset="0" style="stop-color:#A1AAB3"/>
	<stop  offset="1" style="stop-color:#8F979E"/>
</linearGradient>
<path class="st0" d="M41,35H7c-1.1,0-2-0.9-2-2v-3h38v3C43,34.1,42.1,35,41,35z"/>
<linearGradient id="SVGID_2_" gradientUnits="userSpaceOnUse" x1="24" y1="-52.989" x2="24" y2="-58.01" gradientTransform="matrix(1 0 0 -1 0 -18)">
	<stop  offset="0" style="stop-color:#484B4F"/>
	<stop  offset="3.700000e-02" style="stop-color:#4A4E52"/>
	<stop  offset="0.388" style="stop-color:#5C6369"/>
	<stop  offset="0.717" style="stop-color:#667077"/>
	<stop  offset="1" style="stop-color:#6A747C"/>
</linearGradient>
<polygon class="st1" points="29,40 19,40 20,35 28,35 "/>
<linearGradient id="SVGID_3_" gradientUnits="userSpaceOnUse" x1="24" y1="-57.996" x2="24" y2="-60.004" gradientTransform="matrix(1 0 0 -1 0 -18)">
	<stop  offset="0" style="stop-color:#A1AAB3"/>
	<stop  offset="1" style="stop-color:#8F979E"/>
</linearGradient>
<path class="st3" d="M32.5,40h-17c-0.3,0-0.5,0.2-0.5,0.5v1c0,0.3,0.2,0.5,0.5,0.5h17c0.3,0,0.5-0.2,0.5-0.5v-1
	C33,40.2,32.8,40,32.5,40z"/>
<circle class="st9" cx="24" cy="33" r="1"/>
<radialGradient id="SVGID_4_" cx="42.958" cy="-49.192" r="34.553" gradientTransform="matrix(1 0 0 -1 0 -18)" gradientUnits="userSpaceOnUse">
	<stop  offset="0" style="stop-color:#9E6FD9"/>
	<stop  offset="0.173" style="stop-color:#AA73C7"/>
	<stop  offset="0.522" style="stop-color:#CA7F97"/>
	<stop  offset="1" style="stop-color:#FC914D"/>
</radialGradient>
<path class="st4" d="M41,7H7C5.9,7,5,7.9,5,9v22h38V9C43,7.9,42.1,7,41,7z"/>
<path class="st23" d="M21.7,26.9c-1.2-0.4-2.4-1-3.3-1.9l-0.6-0.6l0.5-0.7c0.3-0.4,0.3-0.9,0.1-1.4c-0.2-0.4-0.6-0.6-1.1-0.6
	c-0.1,0-0.1,0-0.2,0l-0.9,0.1L16,20.9c-0.2-0.6-0.2-1.3-0.2-1.9c0-0.6,0.1-1.3,0.2-1.9l0.2-0.9l0.9,0.1c0,0,0.1,0,0.2,0
	c0.4,0,0.9-0.2,1.1-0.6c0.2-0.4,0.2-1-0.1-1.4l-0.5-0.7l0.6-0.6c0.9-0.9,2.1-1.6,3.3-1.9l0.9-0.3l0.3,0.8c0.2,0.5,0.6,0.8,1.1,0.8
	c0.5,0,0.9-0.3,1.1-0.8l0.3-0.8l0.9,0.3c1.2,0.4,2.4,1,3.3,1.9l0.6,0.6l-0.5,0.7c-0.3,0.4-0.3,0.9-0.1,1.4c0.2,0.4,0.6,0.6,1.1,0.6
	c0.1,0,0.1,0,0.2,0l0.9-0.1l0.2,0.9c0.2,0.6,0.2,1.3,0.2,1.9c0,0.6-0.1,1.3-0.2,1.9l-0.2,0.9l-0.9-0.1c0,0-0.1,0-0.2,0
	c-0.4,0-0.9,0.2-1.1,0.6c-0.2,0.4-0.2,1,0.1,1.4l0.5,0.7L29.7,25c-0.9,0.9-2.1,1.6-3.3,1.9l-0.9,0.3l-0.3-0.8
	c-0.2-0.5-0.6-0.8-1.1-0.8c-0.5,0-0.9,0.3-1.1,0.8l-0.3,0.8L21.7,26.9z"/>
<path class="st24" d="M21.8,26.4c-1.2-0.3-2.2-1-3.1-1.8l-0.3-0.3l0.3-0.4c0.4-0.6,0.5-1.3,0.1-1.9c-0.3-0.5-0.9-0.9-1.5-0.9
	c-0.1,0-0.1,0-0.2,0l-0.4,0.1l-0.1-0.4c-0.1-0.6-0.2-1.2-0.2-1.8c0-0.6,0.1-1.2,0.2-1.8l0.1-0.4l0.4,0.1c0.1,0,0.1,0,0.2,0
	c0.6,0,1.2-0.3,1.5-0.9c0.3-0.6,0.3-1.4-0.1-1.9l-0.3-0.4l0.3-0.3c0.9-0.8,2-1.5,3.1-1.8l0.4-0.1l0.2,0.4c0.3,0.6,0.9,1.1,1.6,1.1
	s1.3-0.4,1.6-1.1l0.2-0.4l0.4,0.1c1.2,0.3,2.2,1,3.1,1.8l0.3,0.3L29.4,14c-0.4,0.6-0.5,1.3-0.1,1.9c0.3,0.5,0.9,0.9,1.5,0.9
	c0.1,0,0.1,0,0.2,0l0.4-0.1l0.1,0.4c0.1,0.6,0.2,1.2,0.2,1.8c0,0.6-0.1,1.2-0.2,1.8l-0.1,0.4L31,21.2c-0.1,0-0.1,0-0.2,0
	c-0.6,0-1.2,0.3-1.5,0.9c-0.3,0.6-0.3,1.4,0.1,1.9l0.3,0.4l-0.3,0.3c-0.9,0.8-2,1.5-3.1,1.8l-0.4,0.1l-0.2-0.4
	c-0.3-0.6-0.9-1.1-1.6-1.1s-1.3,0.4-1.6,1.1l-0.2,0.4L21.8,26.4z"/>
<linearGradient id="SVGID_5_" gradientUnits="userSpaceOnUse" x1="12.3214" y1="8.1915" x2="31.5979" y2="26.0319">
	<stop  offset="0" style="stop-color:#FFFFFF"/>
	<stop  offset="0.242" style="stop-color:#F2F2F2"/>
	<stop  offset="1" style="stop-color:#CCCCCC"/>
</linearGradient>
<path class="st5" d="M31,17.3c-0.9,0.1-1.8-0.3-2.2-1.1c-0.5-0.8-0.4-1.8,0.2-2.5c-0.8-0.8-1.8-1.4-2.9-1.7
	c-0.3,0.8-1.1,1.4-2.1,1.4c-0.9,0-1.7-0.6-2.1-1.4c-1.1,0.3-2.1,0.9-2.9,1.7c0.5,0.7,0.6,1.7,0.2,2.5c-0.5,0.8-1.3,1.2-2.2,1.1
	c-0.1,0.5-0.2,1.1-0.2,1.7c0,0.6,0.1,1.1,0.2,1.7c0.9-0.1,1.8,0.3,2.2,1.1c0.5,0.8,0.4,1.8-0.2,2.5c0.8,0.8,1.8,1.4,2.9,1.7
	c0.3-0.8,1.1-1.4,2.1-1.4c0.9,0,1.7,0.6,2.1,1.4c1.1-0.3,2.1-0.9,2.9-1.7c-0.5-0.7-0.6-1.7-0.2-2.5c0.5-0.8,1.3-1.2,2.2-1.1
	c0.1-0.5,0.2-1.1,0.2-1.7C31.3,18.4,31.2,17.9,31,17.3z"/>
<linearGradient id="SVGID_6_" gradientUnits="userSpaceOnUse" x1="26.806" y1="231.8055" x2="21.1566" y2="226.157" gradientTransform="matrix(1 0 0 1 0 -210)">
	<stop  offset="0" style="stop-color:#FFFFFF"/>
	<stop  offset="0.242" style="stop-color:#F2F2F2"/>
	<stop  offset="1" style="stop-color:#CCCCCC"/>
</linearGradient>
<circle class="st6" cx="24" cy="19" r="4"/>
<linearGradient id="SVGID_7_" gradientUnits="userSpaceOnUse" x1="22.1289" y1="227.1285" x2="25.4115" y2="230.4118" gradientTransform="matrix(1 0 0 1 0 -210)">
	<stop  offset="0" style="stop-color:#0D61A9"/>
	<stop  offset="0.363" style="stop-color:#0E5FA4"/>
	<stop  offset="0.78" style="stop-color:#135796"/>
	<stop  offset="1" style="stop-color:#16528C"/>
</linearGradient>
<circle class="st7" cx="24" cy="19" r="2"/>
</svg>