<?xml version="1.0" encoding="iso-8859-1"?>
<!-- Generator: Adobe Illustrator 23.0.3, SVG Export Plug-In . SVG Version: 6.00 Build 0)  -->
<svg version="1.1" id="Layer_1" xmlns="http://www.w3.org/2000/svg" xmlns:xlink="http://www.w3.org/1999/xlink" x="0px" y="0px"
	 viewBox="0 0 48 48" style="enable-background:new 0 0 48 48;" xml:space="preserve">
<path style="fill:none;stroke:#199BE2;stroke-width:4;stroke-miterlimit:10;" d="M25,13h8.877c2.602,0,4.512,2.446,3.881,4.97L33,37
	"/>
<path style="fill:#199BE2;" d="M19,19.68c0,0-4.65,3.721-7.13,0C9.39,15.96,9.08,11,9.08,11H19V19.68z"/>
<path style="fill:#199BE2;" d="M32,36h6c0.552,0,1,0.448,1,1l0,0c0,0.552-0.448,1-1,1h-6V36z"/>
<path style="fill:#50E6FF;" d="M35,36c0-16-6-25-6-25H16c0,0-5,8-5,25v4c0,1.105,0.895,2,2,2h20c1.105,0,2-0.895,2-2V36z"/>
<linearGradient id="SVGID_1_" gradientUnits="userSpaceOnUse" x1="16" y1="8.5" x2="29" y2="8.5">
	<stop  offset="0" style="stop-color:#3079D6"/>
	<stop  offset="1" style="stop-color:#297CD2"/>
</linearGradient>
<path style="fill:url(#SVGID_1_);" d="M22.5,6c-4,0-6.5,5-6.5,5h13C29,11,26.5,6,22.5,6z"/>
<radialGradient id="SVGID_2_" cx="23" cy="34" r="2" gradientUnits="userSpaceOnUse">
	<stop  offset="0.348" style="stop-color:#000000"/>
	<stop  offset="0.936" style="stop-color:#000000;stop-opacity:0.098"/>
	<stop  offset="1" style="stop-color:#000000;stop-opacity:0"/>
</radialGradient>
<path style="opacity:0.3;fill:url(#SVGID_2_);enable-background:new    ;" d="M23,32c-1.105,0-2,0.895-2,2s0.895,2,2,2s2-0.895,2-2
	S24.105,32,23,32z"/>
<path style="fill:#FFFFFF;" d="M23,33c-0.552,0-1,0.448-1,1s0.448,1,1,1s1-0.448,1-1S23.552,33,23,33z"/>
<linearGradient id="SVGID_3_" gradientUnits="userSpaceOnUse" x1="11" y1="40" x2="35" y2="40">
	<stop  offset="0" style="stop-color:#3079D6"/>
	<stop  offset="1" style="stop-color:#297CD2"/>
</linearGradient>
<path style="fill:url(#SVGID_3_);" d="M11,40c0,1.105,0.895,2,2,2h20c1.105,0,2-0.895,2-2v-2H11V40z"/>
</svg>